<svg
    width="160"
    height="41"
    viewBox="0 0 160 41"
    fill="none"
    xmlns="http://www.w3.org/2000/svg"
>
    <path
        d="M63.7575 14.2696C64.6833 14.8095 65.4277 15.6155 65.8952 16.5841C66.4467 17.6052 66.7217 18.8299 66.7217 20.1922C66.7217 21.5546 66.4467 22.7104 65.8268 23.7315C65.2913 24.7271 64.4442 25.517 63.4169 25.9787C62.3044 26.5353 61.0751 26.8146 59.8328 26.7932C59.1008 26.7964 58.375 26.6576 57.6952 26.3845C57.0192 26.1733 56.4044 25.7997 55.9038 25.296V32.376H51.9136V13.7246H55.358L55.7015 15.2232C57.2149 13.9971 58.868 13.3848 60.5896 13.3848C61.761 13.3848 62.8626 13.6572 63.7575 14.2696ZM61.5543 22.7104C62.2431 22.0976 62.5875 21.2807 62.5875 20.2596C62.6051 19.3257 62.2588 18.4218 61.6227 17.7414C61.0028 17.0603 60.1763 16.7878 59.2813 16.7878C58.5246 16.7878 57.8348 16.9312 57.2862 17.2653C56.7347 17.5378 56.3214 18.0139 55.9779 18.6262V21.6894C56.183 22.2738 56.5691 22.7765 57.0795 23.1235C57.6575 23.4864 58.3265 23.6755 59.0077 23.6684C59.9467 23.6865 60.8574 23.3439 61.5543 22.7104Z"
        fill="#212121"
    />
    <path
        d="M69.0603 16.6521C69.6842 15.6614 70.5653 14.861 71.6084 14.3375C72.7639 13.7587 74.0371 13.4573 75.3279 13.457C76.7046 13.457 77.9444 13.7295 79.046 14.3433C80.074 14.8934 80.9318 15.7175 81.5256 16.7252C82.1456 17.7463 82.4206 18.8347 82.4206 20.1283C82.4206 21.4218 82.1456 22.5117 81.5256 23.5327C80.9057 24.5538 80.1476 25.3697 79.046 25.9147C77.8937 26.5009 76.6191 26.8023 75.3279 26.7938C74.0421 26.814 72.7691 26.5348 71.6084 25.9778C70.5517 25.4747 69.6655 24.6697 69.0603 23.6632C68.4669 22.5791 68.1589 21.3602 68.1654 20.1225C68.1675 18.9082 68.4754 17.7142 69.0603 16.6521ZM73.1233 22.5733C73.6748 23.2545 74.433 23.527 75.3279 23.527C75.7416 23.5364 76.1525 23.4561 76.5327 23.2915C76.9128 23.127 77.2534 22.882 77.5311 22.5733C78.0826 21.961 78.3577 21.0762 78.3577 20.1225C78.3577 19.1015 78.0821 18.285 77.5311 17.6732C77.253 17.3419 76.9041 17.078 76.5106 16.9012C76.117 16.7244 75.6889 16.6393 75.2581 16.6521C74.3631 16.6521 73.6748 16.992 73.0549 17.6043C72.5034 18.2855 72.2283 19.1015 72.2283 20.1225C72.2283 21.0762 72.5062 21.8936 73.1233 22.5733Z"
        fill="#212121"
    />
    <path
        d="M88.8948 4.05859V26.4543H84.9045V4.05859H88.8948Z"
        fill="#212121"
    />
    <path
        d="M105.283 14.0645L97.1603 32.4433H93.3026L96.3323 25.8467L90.5479 14.0645H95.0925L98.3987 21.4169L101.704 14.0645H105.283Z"
        fill="#212121"
    />
    <path
        d="M120.573 14.066V26.4548C120.577 27.6058 120.213 28.7276 119.534 29.6542C118.827 30.6324 117.877 31.4067 116.78 31.8999C115.593 32.4508 114.299 32.7299 112.992 32.7173C112.085 32.7224 111.182 32.6082 110.305 32.3774C109.667 32.156 109.047 31.8826 108.453 31.56C107.844 31.1797 107.268 30.748 106.731 30.2694L109.074 27.5447C109.58 28.0422 110.161 28.456 110.796 28.7708C111.464 29.088 112.194 29.2507 112.933 29.2469C113.839 29.2701 114.73 29.0084 115.481 28.4983C116.17 28.0222 116.515 27.2736 116.515 26.3874V24.6163C116.068 25.2907 115.449 25.8317 114.723 26.1823C113.819 26.6079 112.829 26.8175 111.83 26.7947C110.712 26.8077 109.614 26.5009 108.662 25.9098C107.699 25.3649 106.941 24.5489 106.322 23.5279C105.747 22.5127 105.438 21.3666 105.426 20.198C105.404 19.0013 105.714 17.8223 106.322 16.7935C106.906 15.7846 107.735 14.9418 108.732 14.3442C109.656 13.7536 110.731 13.4457 111.826 13.4579C112.76 13.4445 113.69 13.5825 114.581 13.8666C115.407 14.1391 116.027 14.5478 116.433 15.0239L116.847 14.0717L120.573 14.066ZM116.51 21.6894V18.6205C116.247 18.0075 115.785 17.5021 115.201 17.1865C114.546 16.8231 113.81 16.6359 113.063 16.643C112.147 16.6358 111.263 16.9757 110.585 17.5952C109.901 18.2137 109.559 19.0335 109.559 20.0546C109.556 20.5197 109.645 20.9807 109.82 21.411C109.995 21.8413 110.254 22.2324 110.58 22.5615C110.907 22.8907 111.295 23.1514 111.723 23.3286C112.15 23.5058 112.608 23.5959 113.07 23.5938C114.651 23.5279 115.821 22.9227 116.51 21.6894Z"
        fill="#212121"
    />
    <path
        d="M123.879 16.6515C124.499 15.6305 125.326 14.8819 126.428 14.2696C127.583 13.6892 128.856 13.3863 130.147 13.3848C131.524 13.3848 132.763 13.6572 133.865 14.2696C134.895 14.8193 135.755 15.6433 136.35 16.6515C136.933 17.6896 137.239 18.8612 137.24 20.0531C137.24 21.3438 136.965 22.4351 136.345 23.4562C135.789 24.4938 134.921 25.3279 133.865 25.8396C132.713 26.4269 131.439 26.7302 130.147 26.7244C128.861 26.7449 127.588 26.4651 126.428 25.907C125.371 25.4039 124.485 24.5989 123.879 23.5924C123.26 22.5713 122.985 21.4141 122.985 19.9843C122.972 18.8116 123.282 17.6582 123.879 16.6515ZM127.87 22.5742C128.421 23.2554 129.178 23.5279 130.073 23.5279C130.487 23.5371 130.898 23.4567 131.278 23.2922C131.659 23.1276 131.999 22.8828 132.278 22.5742C132.828 21.9619 133.104 21.077 133.104 20.1234C133.104 19.1024 132.829 18.2859 132.278 17.674C132 17.3661 131.661 17.1216 131.282 16.9571C130.903 16.7925 130.493 16.7118 130.08 16.7204C129.185 16.7204 128.497 17.0603 127.877 17.674C127.257 18.2878 126.982 19.1712 126.982 20.1234C127.047 21.077 127.322 21.893 127.874 22.5742H127.87Z"
        fill="#212121"
    />
    <path
        d="M151.358 14.4738C152.185 15.1535 152.528 16.0383 152.597 17.1282V26.4496H148.534V18.6196C148.465 17.395 147.848 16.7821 146.681 16.7812C145.785 16.7812 145.028 17.1899 144.476 18.0718C143.925 18.9538 143.65 20.0465 143.65 21.34V26.4453H139.66V14.0651H143.311L143.576 16.0383C144.038 15.241 144.704 14.5829 145.504 14.1325C146.326 13.6564 147.294 13.457 148.397 13.457C149.567 13.457 150.602 13.7926 151.358 14.4738Z"
        fill="#212121"
    />
    <path
        d="M34.8339 13.8613C34.4758 13.6609 34.0729 13.5557 33.6632 13.5557C33.2535 13.5557 32.8505 13.6609 32.4925 13.8613L27.1198 16.9933L23.4702 19.0354L18.099 22.1674C17.7409 22.3678 17.338 22.473 16.9283 22.473C16.5186 22.473 16.1156 22.3678 15.7576 22.1674L11.4823 19.7166C11.1346 19.5167 10.8441 19.23 10.6389 18.884C10.4337 18.5381 10.3207 18.1447 10.3109 17.7419V12.9091C10.3062 12.5033 10.4132 12.1041 10.6199 11.7556C10.8267 11.4071 11.1251 11.1229 11.4823 10.9344L15.6892 8.55246C16.047 8.35138 16.45 8.24582 16.8599 8.24582C17.2697 8.24582 17.6728 8.35138 18.0306 8.55246L22.2303 10.9344C22.578 11.1343 22.8685 11.421 23.0737 11.767C23.2789 12.1129 23.3919 12.5063 23.4018 12.9091V16.0382L27.0457 13.9302V10.7982C27.0502 10.3928 26.9434 9.99394 26.7369 9.64575C26.5305 9.29755 26.2324 9.0135 25.8757 8.82493L18.099 4.33202C17.7412 4.13095 17.3381 4.02539 16.9283 4.02539C16.5184 4.02539 16.1154 4.13095 15.7576 4.33202L7.83831 8.82493C7.48124 9.01318 7.18285 9.29712 6.97612 9.64536C6.76939 9.99359 6.66237 10.3926 6.66689 10.7982V19.8528C6.66237 20.2584 6.76939 20.6574 6.97612 21.0057C7.18285 21.3539 7.48124 21.6378 7.83831 21.8261L15.7576 26.319C16.1154 26.5201 16.5184 26.6256 16.9283 26.6256C17.3381 26.6256 17.7412 26.5201 18.099 26.319L23.4702 23.2559L27.1198 21.1449L32.4925 18.0818C32.8505 17.8814 33.2535 17.7762 33.6632 17.7762C34.0729 17.7762 34.4758 17.8814 34.8339 18.0818L39.0351 20.4652C39.3823 20.6651 39.6723 20.9517 39.8773 21.2974C40.0822 21.643 40.1951 22.036 40.2051 22.4384V27.2726C40.2096 27.6781 40.1027 28.0769 39.8962 28.4251C39.6898 28.7733 39.3918 29.0573 39.0351 29.2459L34.8339 31.6967C34.476 31.8978 34.073 32.0033 33.6632 32.0033C33.2533 32.0033 32.8503 31.8978 32.4925 31.6967L28.2913 29.3147C27.9438 29.1147 27.6535 28.8279 27.4483 28.482C27.2431 28.1361 27.13 27.7428 27.1198 27.34V24.2124L23.4702 26.3219V29.4538C23.4657 29.8595 23.5727 30.2584 23.7794 30.6067C23.9861 30.9549 24.2845 31.2389 24.6416 31.4271L32.5609 35.92C32.9187 36.1211 33.3217 36.2266 33.7316 36.2266C34.1414 36.2266 34.5445 36.1211 34.9023 35.92L42.823 31.4271C43.1702 31.2272 43.4602 30.9406 43.6652 30.5949C43.8701 30.2493 43.983 29.8562 43.993 29.4538V20.3963C43.9975 19.9909 43.8906 19.5921 43.6841 19.2439C43.4777 18.8957 43.1797 18.6116 42.823 18.4231L34.8339 13.8613Z"
        fill="#8247E5"
    />
</svg>
