<svg
    width="40"
    height="40"
    viewBox="0 0 40 40"
    fill="none"
    xmlns="http://www.w3.org/2000/svg"
>
    <circle cx="20" cy="20" r="20" fill="#111D3C" />
    <path
        d="M25.9409 15.5305C25.5103 15.2663 24.9507 15.2663 24.4772 15.5305L21.1192 17.5566L18.8375 18.878L15.4796 20.904C15.0491 21.1683 14.4895 21.1683 14.0159 20.904L11.3468 19.3184C10.9163 19.0541 10.6149 18.5697 10.6149 18.0411V14.9139C10.6149 14.3854 10.8732 13.9009 11.3468 13.6366L13.9729 12.095C14.4034 11.8307 14.963 11.8307 15.4366 12.095L18.0627 13.6366C18.4931 13.9009 18.7945 14.3854 18.7945 14.9139V16.94L21.0762 15.5746V13.5485C21.0762 13.02 20.8179 12.5355 20.3443 12.2712L15.4796 9.36422C15.0491 9.09995 14.4895 9.09995 14.0159 9.36422L9.06511 12.2712C8.59155 12.5355 8.33325 13.02 8.33325 13.5485V19.4065C8.33325 19.935 8.59155 20.4196 9.06511 20.6839L14.0159 23.5908C14.4464 23.8551 15.0061 23.8551 15.4796 23.5908L18.8375 21.6088L21.1192 20.2434L24.4772 18.2613C24.9076 17.9971 25.4673 17.9971 25.9409 18.2613L28.5669 19.8029C28.9974 20.0672 29.2988 20.5517 29.2988 21.0802V24.2074C29.2988 24.736 29.0405 25.2205 28.5669 25.4847L25.9409 27.0704C25.5103 27.3347 24.9507 27.3347 24.4772 27.0704L21.8511 25.5288C21.4206 25.2645 21.1192 24.78 21.1192 24.2515V22.2254L18.8375 23.5908V25.6169C18.8375 26.1454 19.0959 26.6299 19.5694 26.8942L24.5202 29.8012C24.9507 30.0654 25.5103 30.0654 25.9839 29.8012L30.9347 26.8942C31.3652 26.6299 31.6666 26.1454 31.6666 25.6169V19.7588C31.6666 19.2303 31.4082 18.7459 30.9347 18.4816L25.9409 15.5305Z"
        fill="#8247E5"
    />
</svg>
